<?xml version="1.0" encoding="utf-8"?>
<!-- Generator: Adobe Illustrator 14.0.0, SVG Export Plug-In . SVG Version: 6.00 Build 43363)  -->
<!DOCTYPE svg PUBLIC "-//W3C//DTD SVG 1.1//EN" "http://www.w3.org/Graphics/SVG/1.1/DTD/svg11.dtd">
<svg version="1.1" id="Layer_1" xmlns="http://www.w3.org/2000/svg" xmlns:xlink="http://www.w3.org/1999/xlink" x="0px" y="0px"
	 width="48px" height="48px" viewBox="0 0 48 48" enable-background="new 0 0 48 48" xml:space="preserve">
<g>
	<path fill-rule="evenodd" clip-rule="evenodd" fill="#3C535D" d="M24.139,39.32c-7.817,0-14.183-6.14-14.587-13.856h4.579
		l-6.927-7.697l-6.927,7.697h4.656c0.406,10.269,8.837,18.474,19.206,18.474c4.921,0,9.397-1.862,12.802-4.902l-3.269-3.268
		C31.111,37.978,27.785,39.32,24.139,39.32z"/>
	<path fill-rule="evenodd" clip-rule="evenodd" fill="#3C535D" d="M43.344,23.925C42.936,13.658,34.506,5.451,24.139,5.451
		c-4.921,0-9.398,1.863-12.802,4.902l3.267,3.268c2.562-2.207,5.888-3.553,9.535-3.553c7.816,0,14.183,6.139,14.585,13.857h-4.578
		l6.928,7.697L48,23.925H43.344z"/>
</g>
</svg>
